#!OML:ASF E:/inclinewalkrobotboard/Project1/Captureday1/Session1/subject1.ASF
:FULLY-SPECIFIED
:DEGREES
201
root 0 0 0 45.10078262936295 -47.362492424490824 -18.550945603800578
lowerback -6.4923361551434455 3.613630850090833 -0.4906454813353519
upperback -13.48057649568906 4.318529977596217 -0.09665990876696906
thorax -11.082060427463004 2.1161838785244846 0.6682015922598832
lowerneck -11.42990807993307 6.818439107055107 4.468689917889934
upperneck 18.11439062867407 7.299309131098964 7.319231370389561
head 7.611009826703264 4.263594708501235 2.174473958210664
rclavicle 8.65187129313765E-16 -1.779282697226542E-15
rhumerus 8.185726852440196 -22.436786429003032 -48.89020177406522
rradius 27.869303495131728
rwrist 21.451847988453096
rhand 0.7136155950489353 7.431091622767263
rfingers 7.125020000000028
rthumb 26.32572388497718 -19.63823793827015
lclavicle 1.2807189931857824E-15 -9.435143860604196E-16
lhumerus -10.466314300451602 4.205399389679231 50.789453025929134
lradius 35.316301554002884
lwrist -8.26467574649118
lhand -1.9043932424267727 23.425628404774983
lfingers 7.125019999999976
lthumb 23.39986154834218 50.63494597759016
rfemur 60.29478600184404 -83.43490963616875 -57.59006788416043
rtibia 40.20077312134675
rfoot -18.504612977318395 -18.153331465785243
rtoes 21.774057224884615
lfemur -45.23431448162223 8.377286631781661 -27.284243482436782
ltibia 44.211640897134565
lfoot -22.800844975785644 15.140493214134242
ltoes 11.01187408075474
202
root 0 0 0 45.086959765440376 -47.339790720865594 -18.546884758519255
lowerback -6.489269587450615 3.6140545267333457 -0.488038509884825
upperback -13.47197028297192 4.319526029097357 -0.09631599317922257
thorax -11.074974295139 2.116316115109645 0.6668943939038372
lowerneck -11.434534674199302 6.811780403810666 4.46609524943992
upperneck 18.122803756874198 7.291269594557109 7.31281620513912
head 7.6148075282702745 4.259300493669773 2.1724177496410797
rclavicle 8.718504758426383E-16 -1.785471515746797E-15
rhumerus 8.158826162710458 -22.44377353597649 -48.82915285219319
rradius 27.873335010979957
rwrist 21.437763734236828
rhand 0.7362197773687438 7.416424271096183
rfingers 7.125020000000028
rthumb 26.349542329341013 -19.649372019166748
lclavicle 1.2978913561530015E-15 -9.397344691440833E-16
lhumerus -10.490044254416047 4.171024945198399 50.86761367118679
lradius 35.34200516521895
lwrist -8.212327224149085
lhand -1.9037180062247412 23.41576769671906
lfingers 7.125019999999976
lthumb 23.397523503114684 50.623628087938876
rfemur 60.03044898224227 -83.13652324285943 -57.29585121521059
rtibia 40.202577349518585
rfoot -18.482179180447403 -18.117738378973435
rtoes 21.739141451534106
lfemur -45.127742108181366 8.342760497461768 -27.25266262927545
ltibia 44.17803307775459
lfoot -22.788620813792978 15.089275251621412
ltoes 10.97891284840929
203
root 0 0 0 45.07387887189498 -47.31252147118474 -18.541347041052234
lowerback -6.488629980556209 3.6131740056816057 -0.48664701355223966
upperback -13.465685854242633 4.31898737598198 -0.09473338285087118
thorax -11.068870067341773 2.115924104733745 0.6675947300258567
lowerneck -11.436508290251725 6.804502656422847 4.462439097870758
upperneck 18.131695668794 7.282477662791658 7.307291599869217
head 7.6184669150068105 4.254593723473489 2.170589055576861
rclavicle 8.78612898285938E-16 -1.7920066735241816E-15
rhumerus 8.124985864983548 -22.45000518712994 -48.77165765431306
rradius 27.88009011992045
rwrist 21.416537539628486
rhand 0.7541641671736699 7.406446733438512
rfingers 7.125020000000028
rthumb 26.368226282338448 -19.65688086756801
lclavicle 1.3132062665174564E-15 -9.360553873186473E-16
lhumerus -10.508967218878901 4.138396296718235 50.93678772771202
lradius 35.368136877000744
lwrist -8.162961855731972
lhand -1.8997078314467668 23.406444926095492
lfingers 7.125019999999975
lthumb 23.398309197631452 50.612282724126054
rfemur 59.81731480398622 -82.90093473905662 -57.0639560352962
rtibia 40.204509653811
rfoot -18.46853037220026 -18.08994190340963
rtoes 21.71602008051734
lfemur -45.04559951283075 8.316824457547954 -27.22650688449314
ltibia 44.15175294897142
lfoot -22.783626122079966 15.051018906759374
ltoes 10.956444862098586
204
root 0 0 0 45.06025226121463 -47.2889208529579 -18.53568203379988
lowerback -6.48685604068358 3.6122576523397303 -0.48570105878387304
upperback -13.46004040143141 4.318224655964066 -0.09349739262965162
thorax -11.063948298845766 2.1154700849158266 0.6682048612717015
lowerneck -11.438308086280248 6.798473106120237 4.459288673994867
upperneck 18.138307175658102 7.275218347886506 7.302688445955612
head 7.6212296384073355 4.250703648019442 2.1690866336891164
rclavicle 8.838498531876588E-16 -1.79746893731906E-15
rhumerus 8.090571212635759 -22.453876973080586 -48.728447273424166
rradius 27.885829607692415
rwrist 21.395705616929977
rhand 0.7658156095073263 7.400948948177215
rfingers 7.1250200000000286
rthumb 26.380715565908474 -19.66074404129852
lclavicle 1.3287947634008537E-15 -9.321401377287188E-16
lhumerus -10.527544128002202 4.10450760826591 51.007546409062954
lradius 35.3953009214112
lwrist -8.111566067709187
lhand -1.8947237364625025 23.396873062838377
lfingers 7.125019999999975
lthumb 23.399971423015415 50.60045514581718
rfemur 59.606227896694726 -82.66828974172952 -56.83575107475468
rtibia 40.20654409268894
rfoot -18.456894835147107 -18.06254558317533
rtoes 21.69507528235243
lfemur -44.972593057370766 8.293560454323353 -27.204867991495842
ltibia 44.12908438162015
lfoot -22.77626740701909 15.016845141239337
ltoes 10.934867297765713
